<?xml version="1.0" encoding="UTF-8"?>
<svg width="16px" height="16px" viewBox="0 0 16 16" version="1.1" xmlns="http://www.w3.org/2000/svg" xmlns:xlink="http://www.w3.org/1999/xlink">
    <title>路径 2</title>
    <g id="1.1" stroke="none" stroke-width="1" fill="none" fill-rule="evenodd">
        <g id="设备icon" transform="translate(-324.000000, -30.000000)" fill="#3852FF" fill-rule="nonzero">
            <path d="M335.51296,30 C336.771269,30.0020433 337.79042,31.0196107 337.791034,32.2745502 L337.791034,32.2745502 L337.791034,40.7410632 L336.741689,39.6921375 L336.741689,32.1837818 C336.741035,31.5562491 336.231818,31.047327 335.602606,31.045356 L335.602606,31.045356 L326.189611,31.045356 C325.559737,31.045487 325.04946,31.5544182 325.048155,32.1826085 L325.048155,32.1826085 L325.048155,43.8162416 C325.049474,44.4442383 325.559953,44.9528175 326.189633,44.9534737 L326.189633,44.9534737 L335.602622,44.9534601 C335.996756,44.9471688 336.359091,44.7364093 336.558639,44.3973738 L336.558639,44.3973738 L337.290906,45.1288775 C336.87571,45.655131 336.234378,46 335.511682,46 L335.511682,46 L326.28057,46 C325.02253,45.9986941 324.002642,44.9826124 324,43.7279387 L324,43.7279387 L324,32.274458 C324.001309,31.0188579 325.021583,30.0013154 326.280554,30 L326.280554,30 Z M339.572663,43.4701957 L339.960334,43.8592178 L339.960334,43.8592178 C340.013441,43.9149176 340.011217,43.994977 339.960334,44.0429884 L339.960334,44.0429884 L338.638183,45.361605 C338.587005,45.4116357 338.505099,45.4116357 338.45392,45.361605 L338.45392,45.361605 L338.06266,44.9737765 L339.572663,43.4701957 Z M335.165901,39.0429893 L339.511641,43.3830786 L337.995654,44.899786 L333.648717,40.5573092 L335.165901,39.0429893 Z M335.049828,38.9510925 L333.556576,40.4427405 C333.556579,40.4427405 332.837472,38.5763938 333.009772,38.4045531 C333.18207,38.2315217 335.049828,38.9510925 335.049828,38.9510925 Z M332.951139,35.8926231 C333.18087,35.8936838 333.370895,36.0588034 333.410286,36.2756768 L333.417781,36.359214 C333.418438,36.6162438 333.210051,36.8251397 332.952334,36.8258003 L327.150432,36.8258003 C326.892053,36.8258003 326.682594,36.6168998 326.682594,36.3592109 C326.682594,36.1015221 326.892053,35.8926231 327.150432,35.8926231 L332.951139,35.8926231 Z M334.582001,33.1396367 C334.83972,33.1389783 335.049177,33.3468073 335.049841,33.6038355 L335.049841,33.6062292 C335.050486,33.8632589 334.842099,34.0721548 334.584382,34.0728154 L327.150432,34.0728154 C326.892053,34.0728154 326.682594,33.8639149 326.682594,33.6062261 C326.682594,33.3485372 326.892053,33.1396367 327.150432,33.1396367 L334.582001,33.1396367 Z" id="路径-2"></path>
        </g>
    </g>
</svg>