<?xml version="1.0" encoding="UTF-8"?>
<svg width="64px" height="64px" viewBox="0 0 64 64" version="1.1" xmlns="http://www.w3.org/2000/svg" xmlns:xlink="http://www.w3.org/1999/xlink">
    <title>icon/在线数</title>
    <g id="icon/在线数" stroke="none" stroke-width="1" fill="none" fill-rule="evenodd">
        <path d="M32,0 L32,0 C14.326875,0 0,14.326875 0,32 C0,49.673125 14.326875,64 32,64 C49.673125,64 64,49.673125 64,32 L64,32 C64,14.3268764 49.673125,0 32,0 L32,0 Z" id="路径" fill-opacity="0.0977108829" fill="#25BEFE" fill-rule="nonzero"></path>
        <path d="M39.7714283,33.8 C44.3159341,33.8 48,37.4264946 48,41.9 C48,46.290655 44.4511252,49.8653946 40.0229981,49.9962867 L39.7714283,50 C35.2269229,50 31.542857,46.3735054 31.542857,41.9 C31.542857,37.509345 35.0917318,33.9346054 39.5198585,33.8037133 L39.7714283,33.8 Z M41.1428337,14 C41.8401303,14 42.4904918,14.1311299 43.093918,14.39339 C43.6973483,14.6556502 44.227022,15.0097011 44.6829474,15.4555447 C45.1388728,15.9013884 45.5009277,16.4193496 45.7691203,17.0094365 C46.0373109,17.5995233 46.1714282,18.2355035 46.1714282,18.9173771 L46.1717527,34.2631556 C44.4328429,32.8493774 42.2029014,32 39.7714283,32 C34.2170217,32 29.7142856,36.432381 29.7142856,41.9 C29.7142856,43.3556019 30.0334138,44.737832 30.6065544,45.9825919 L23.5227381,45.9826217 L23.5227381,46.6216417 C23.5227381,47.3035193 23.2813668,47.8870471 22.7986242,48.372229 C22.3158816,48.857411 21.7258619,49.1 21.0285693,49.1 C20.3312727,49.1 19.7345497,48.8574094 19.2383965,48.372229 C18.7422432,47.8870471 18.4941687,47.3035193 18.4941687,46.6216417 L18.4941687,45.9826217 C17.8236933,45.9826217 17.3141294,45.8514918 16.9654851,45.5892317 C16.6168376,45.3269715 16.3754655,44.9729206 16.2413712,44.527077 C16.1072761,44.0812333 16.0335237,43.5632721 16.0201143,42.9731853 C16.0067048,42.3830984 16,41.7471182 16,41.0652446 L16,18.9173771 C16,18.2354995 16.1340951,17.5995193 16.4022856,17.0094365 C16.6704762,16.4193496 17.0325331,15.9013884 17.4884585,15.4555447 C17.9443839,15.0097011 18.4740577,14.6556522 19.0774879,14.39339 C19.6809182,14.1311299 20.3312797,14 21.0285723,14 L41.1428337,14 Z M38.8571426,37.4 C38.3865024,37.4 38.0015701,37.7649551 37.948981,38.198795 L37.9428569,38.3 L37.9428569,38.3 L37.9428569,42.8 C37.9428569,43.2336134 38.2850339,43.6281513 38.8571426,43.7 L42.5142854,43.7 C43.0211287,43.7 43.4285711,43.276734 43.4285711,42.8 C43.4285711,42.2325008 43.0211287,41.8092393 42.5142854,41.9 L39.7714283,41.9 L39.7714283,38.3 C39.7636192,37.90858 39.480882,37.5399322 38.9947216,37.4249085 L38.8571426,37.4 Z M22.1952179,37.8394382 C21.6588368,37.8394382 21.2163221,38.0164639 20.8676737,38.3705136 C20.5190262,38.7245645 20.3447033,39.150737 20.3447033,39.649033 C20.3447033,40.1473251 20.519027,40.5734996 20.8676737,40.9275525 C21.2163212,41.2816034 21.6588368,41.4586279 22.1952179,41.4586279 C22.7047777,41.4586279 23.1405892,41.2816022 23.5026482,40.9275525 C23.8647051,40.5735016 24.0457326,40.1473291 24.0457326,39.649033 C24.0457326,39.1507409 23.8647039,38.7245665 23.5026482,38.3705136 C23.1405912,38.0164627 22.7047818,37.8394382 22.1952179,37.8394382 Z M43.6772839,21.3564078 L18.4942049,21.3564078 L18.4942049,31.1911485 L43.6772839,31.1911485 L43.6772839,21.3564078 Z M36.1947614,16.4390307 L25.976703,16.4390307 L25.8305665,16.4462563 C25.5448614,16.4751584 25.2985632,16.5907668 25.0916735,16.7930816 C24.8503022,17.0291156 24.7296166,17.3176019 24.7296166,17.6585407 C24.7296166,18.0257049 24.8503022,18.3273042 25.0916735,18.5633381 C25.3330448,18.7993721 25.6280546,18.917389 25.976703,18.917389 L25.976703,18.917389 L36.1947614,18.917389 L36.3408979,18.9101635 C36.626603,18.8812614 36.8729012,18.7656529 37.0797909,18.5633381 C37.3211622,18.3273042 37.4418478,18.0257037 37.4418478,17.6585407 C37.4418478,17.3176027 37.3211622,17.0291156 37.0797909,16.7930816 C36.8384196,16.5570477 36.5434098,16.4390307 36.1947614,16.4390307 L36.1947614,16.4390307 Z" id="形状备份" fill="#25BEFE" fill-rule="nonzero"></path>
    </g>
</svg>