<?xml version="1.0" encoding="UTF-8"?>
<svg width="64px" height="64px" viewBox="0 0 64 64" version="1.1" xmlns="http://www.w3.org/2000/svg" xmlns:xlink="http://www.w3.org/1999/xlink">
    <title>icon/报警数</title>
    <g id="icon/报警数" stroke="none" stroke-width="1" fill="none" fill-rule="evenodd">
        <g id="违章告警次数" fill="#F56E5C" fill-rule="nonzero">
            <rect id="矩形" fill-opacity="0.147677762" x="0" y="0" width="64" height="64" rx="32"></rect>
            <path d="M20.6666669,40.3130434 L20.6666669,32.2782609 C20.6666669,25.9388174 25.7406002,20.8 32,20.8 C38.2594002,20.8 43.3333334,25.9388174 43.3333334,32.2782609 L43.3333334,40.3130434 L43.3333334,40.3130434 C44.5851779,40.3130434 45.6,41.3408428 45.6,42.6086957 L45.6,44.9043478 L45.6,44.9043478 C45.6,46.1722006 44.5851779,47.2 43.3333334,47.2 L20.6666667,47.2 L20.6666666,47.2 C19.4148221,47.2 18.4,46.1722006 18.4,44.9043478 C18.4,44.9043478 18.4,44.9043478 18.4,44.9043478 L18.4,42.6086957 L18.4,42.608696 C18.4,41.3408432 19.4148221,40.3130438 20.6666666,40.3130438 L20.6666669,40.3130434 Z M31.997585,18.4124541 C32.6786114,18.4124541 33.2340584,17.871993 33.2340584,17.2093406 L33.2340584,14.8031135 C33.2340584,14.1404611 32.6786114,13.6 31.997585,13.6 C31.3165586,13.6 30.7611116,14.1404611 30.7611116,14.8031135 L30.7611116,17.2093406 C30.7611116,17.871993 31.3165586,18.4124541 31.997585,18.4124541 L31.997585,18.4124541 Z M41.744473,21.2510501 C42.2226405,21.7163166 43.0099263,21.7163166 43.4929238,21.2510501 L45.2413744,19.5497724 C45.7195418,19.0845058 45.7195418,18.3184609 45.2413744,17.8484946 C44.763207,17.3832281 43.9759211,17.3832281 43.4929238,17.8484946 L41.744473,19.5497724 C41.2614756,20.0150389 41.2614756,20.7810838 41.744473,21.2510501 Z M20.5070762,21.2510501 C20.9852437,21.7163166 21.7725295,21.7163166 22.255527,21.2510501 C22.7336944,20.7857835 22.7336944,20.0197386 22.255527,19.5497724 L20.5070762,17.8484946 C20.0289088,17.3832281 19.241623,17.3832281 18.7586256,17.8484946 C18.2804582,18.3137612 18.2804582,19.0798062 18.7586256,19.5497724 L20.5070762,21.2510501 Z M26.0500002,35.1765218 L30.8933002,35.1621739 L31.4860335,41.3822434 L37.9500002,31.6756522 L33.1310668,31.7066434 L32.5139668,25.4699304 L26.0500002,35.1765218 Z" id="形状"></path>
        </g>
    </g>
</svg>