<?xml version="1.0" encoding="UTF-8"?>
<svg width="64px" height="64px" viewBox="0 0 64 64" version="1.1" xmlns="http://www.w3.org/2000/svg" xmlns:xlink="http://www.w3.org/1999/xlink">
    <title>icon/日均时常</title>
    <g id="icon/日均时常" stroke="none" stroke-width="1" fill="none" fill-rule="evenodd">
        <g id="驾驶时常" fill="#50CE53" fill-rule="nonzero">
            <rect id="矩形" fill-opacity="0.150778177" x="0" y="0" width="64" height="64" rx="32"></rect>
            <g id="剩余时长" transform="translate(14.400000, 14.400000)">
                <path d="M17.6,0 C27.320211,0 35.2,7.87978894 35.2,17.6 L35.2,17.6 L35.1976421,17.8910482 C35.0422202,27.4770189 27.223009,35.2 17.6,35.2 C7.87978894,35.2 0,27.320211 0,17.6 L0,17.6 L0.00235789732,17.3089518 C0.157779821,7.72298114 7.97699106,0 17.6,0 Z M13.1530961,30.0311509 C12.580726,29.8275097 11.9516494,30.126423 11.7480114,30.698793 L11.748,30.6976 C11.7479158,30.696876 11.7478161,30.6971534 11.7477166,30.6974309 C11.5427046,31.2702468 11.8404319,31.8998864 12.4124153,32.104601 L12.4124153,32.104601 L12.8619492,32.2574506 C13.4643102,32.4518866 14.0783062,32.6087895 14.7004105,32.7271982 L14.7004105,32.7271982 L14.8093862,32.7405247 C15.3517958,32.7797355 15.8497065,32.412749 15.9639622,31.8697132 C16.0890477,31.2752124 15.708511,30.6918781 15.1140154,30.5667946 L15.1140154,30.5667946 L14.7146022,30.4841624 C14.1845618,30.3658902 13.664657,30.2152341 13.1560151,30.032194 L13.1560151,30.032194 L13.1530961,30.0311509 Z M7.9656561,26.6237822 C7.55010835,26.1806218 6.85398402,26.158239 6.4108235,26.5737889 L6.4108235,26.5737889 C5.96706102,26.9899016 5.94467823,27.6860259 6.36022804,28.1291865 L6.36022804,28.1291865 L6.68974107,28.4702505 C7.13592626,28.918141 7.60923086,29.3383867 8.10702808,29.7285898 L8.10702808,29.7285898 L8.19915536,29.7935063 C8.67099832,30.0913549 9.30111768,29.9892891 9.6525264,29.5404885 C10.0273604,29.0617714 9.94314688,28.3698247 9.46442624,27.9949887 L9.46442624,27.9949887 L9.14852416,27.7394555 C8.73217864,27.392455 8.33582512,27.0203894 7.96622476,26.624389 L7.96622476,26.624389 L7.9656561,26.6237822 Z M4.89792614,21.2286953 C4.69057194,20.7081192 4.11732942,20.4208854 3.56842241,20.580983 L3.56842241,20.580983 C2.9860972,20.7542504 2.65235446,21.3646324 2.82262226,21.9471913 L2.82262226,21.9471913 L2.96352056,22.4004106 C3.16070026,23.0016078 3.39503324,23.5901403 3.66522142,24.1625918 L3.66522142,24.1625918 L3.67501541,24.1839125 L3.67501541,24.1839125 L3.68526212,24.2050198 C3.95638832,24.7486781 4.61689944,24.9696099 5.1605595,24.6984847 C5.70421781,24.4273586 5.92514962,23.7668474 5.65402445,23.2231874 L5.65402445,23.2231874 L5.48668258,22.8536406 C5.27104625,22.3575322 5.08554218,21.8481874 4.93242203,21.3289855 L4.93242203,21.3289855 L4.89792614,21.2286953 Z M17.6000362,8.79997146 L17.4941161,8.80500712 C16.9363057,8.8583108 16.5000539,9.32820928 16.5000539,9.89998824 L16.5000539,9.89998824 L16.5000539,17.5999715 L16.5000539,17.5999715 L16.5050894,17.7059098 C16.5583913,18.263726 17.0282743,18.6999778 17.6000533,18.6999778 L17.6000533,18.6999778 L25.3000436,18.6999778 L25.4980438,18.6823778 C26.0222086,18.5874769 26.4030501,18.1306327 26.4020732,17.5979503 C26.4009505,16.9904388 25.9075587,16.498859 25.3000436,16.4999774 L25.3000436,16.4999774 L18.7000372,16.4999774 L18.7000372,9.89997088 L18.6824372,9.70197072 C18.5868042,9.17936672 18.1313212,8.79979448 17.6000362,8.79997146 L17.6000362,8.79997146 Z M3.64307483,14.2754127 C3.04278878,14.1819917 2.48042543,14.5928937 2.38700594,15.1931798 L2.38700594,15.1931798 L2.32130505,15.6604414 C2.24294962,16.2851712 2.20176523,16.9166606 2.20000124,17.5537798 C2.1987991,18.1612914 2.6903088,18.6547554 3.29782392,18.6559648 C3.90533544,18.6571669 4.39879942,18.1656572 4.40000438,17.5581421 L4.40000438,17.5581421 L4.40741402,17.149771 C4.42543654,16.6063542 4.47612458,16.0674406 4.56060466,15.5341601 L4.56060466,15.5341601 L4.57221036,15.4282096 C4.60642509,14.8689038 4.21020575,14.3648002 3.64540534,14.2757598 L3.64540534,14.2757598 L3.64307483,14.2754127 Z M6.78594608,8.2153488 C6.30585233,7.84307901 5.61487858,7.93048114 5.24260676,8.41057128 L5.24260676,8.41057128 L4.96489572,8.79492392 C4.60275865,9.31292808 4.27328633,9.85289776 3.97760604,10.4125782 C3.71353308,10.9393567 3.91147862,11.5806706 4.4265194,11.8669722 C4.95750538,12.1621374 5.62723898,11.9709692 5.9224057,11.4399781 L5.9224057,11.4399781 L6.11804323,11.0836667 C6.38612455,10.6127382 6.68299392,10.1586405 7.00700845,9.72397648 L7.00700845,9.72397648 L7.06981422,9.6255168 C7.33567111,9.1558608 7.22161491,8.55317504 6.78594608,8.2153488 Z M12.157052,4.33461142 C11.8875448,3.79015023 11.2276886,3.56725754 10.6832293,3.83676674 L10.6832293,3.83676674 L10.2621272,4.05693189 C9.70589496,4.35887738 9.1705016,4.69433269 8.65482248,5.06217291 C8.16030616,5.41574248 8.04604928,6.10325638 8.3996224,6.5977727 C8.753192,7.09228901 9.44070592,7.20654594 9.93522224,6.85297277 L9.93522224,6.85297277 L10.2688842,6.62174228 C10.7186006,6.3202175 11.1874651,6.04601042 11.6732256,5.80137004 C12.2083386,5.5269129 12.4238454,4.87358445 12.157052,4.33461142 Z M17.6000361,2.19996039 L17.126035,2.20714679 C16.4943718,2.22638235 15.864327,2.28421021 15.2394301,2.38036034 L15.2394301,2.38036034 L15.1338874,2.40493039 C14.6175266,2.55208221 14.2766665,3.05667212 14.3450573,3.59996415 C14.4209367,4.20272006 14.9710782,4.62984102 15.5738341,4.55396415 L15.5738341,4.55396415 L15.9750615,4.49908721 C16.5116504,4.43375586 17.0544342,4.39996382 17.6000361,4.39996382 C18.2075481,4.39996382 18.7000354,3.90747959 18.7000354,3.29996447 C18.7000354,2.69245244 18.2075512,2.19996039 17.6000361,2.19996039 L17.6000361,2.19996039 Z" id="路径-2"></path>
            </g>
        </g>
    </g>
</svg>