<?xml version="1.0" encoding="UTF-8"?>
<svg width="64px" height="64px" viewBox="0 0 64 64" version="1.1" xmlns="http://www.w3.org/2000/svg" xmlns:xlink="http://www.w3.org/1999/xlink">
    <title>icon/日均里程</title>
    <g id="icon/日均里程" stroke="none" stroke-width="1" fill="none" fill-rule="evenodd">
        <rect id="矩形" fill-opacity="0.144504787" fill="#FACD2F" fill-rule="nonzero" x="0" y="0" width="64" height="64" rx="32"></rect>
        <path d="M31.3308732,40.9606881 C31.3308732,40.9606881 43.3091532,34.2401655 43.3091532,24.6986805 C43.3917621,18.2270565 37.939573,13 31.3308732,13 C24.7221733,13 19.3525931,18.2270565 19.3525931,24.6986805 C19.3525931,34.4890641 31.3308732,40.9606881 31.3308732,40.9606881 Z M47.117393,38.3886466 C49.3478269,38.3886466 51,40.0480338 51,42.2052406 C51,44.3624474 49.3478269,46.0218346 47.1999985,46.0218346 L47.1999985,46.0218346 L24.3999896,46.0218346 C23.6565104,46.0218346 23.1608589,46.5196504 23.1608589,47.2663759 C23.1608589,48.0131015 23.6565104,48.5109173 24.3999896,48.5109173 L24.3999896,48.5109173 L39.5999881,48.5109173 C40.3434747,48.5109173 40.8391263,49.0087331 40.8391263,49.7554586 C40.8391263,50.5021842 40.3434747,51 39.5999881,51 L39.5999881,51 L24.3999896,51 C22.2521612,51 20.5999881,49.3406128 20.5999881,47.183406 C20.5999881,45.0261993 22.2521612,43.366812 24.3999896,43.366812 L24.3999896,43.366812 L47.117393,43.366812 C47.8608722,43.366812 48.3565238,42.8689962 48.3565238,42.1222707 C48.3565238,41.3755451 47.8608722,40.8777293 47.117393,40.8777293 L47.117393,40.8777293 L40.7565097,40.8777293 C40.0130305,40.8777293 39.5173789,40.3799135 39.5173789,39.633188 C39.5173789,38.8864624 40.0130305,38.3886466 40.7565097,38.3886466 L40.7565097,38.3886466 Z M21.9217392,38.4716165 C22.6652184,38.4716165 23.1608737,38.9694323 23.1608737,39.7161579 C23.1608737,40.4628834 22.5826129,40.9606992 21.8391337,40.9606992 L21.8391337,40.9606992 L14.2391308,40.9606992 C13.4956516,40.9606992 13,40.4628834 13,39.7161579 C13,38.9694323 13.4956516,38.4716165 14.2391308,38.4716165 L14.2391308,38.4716165 Z M31.3308732,20.4672556 C33.7265255,20.4672556 35.7917558,22.5414924 35.7917558,24.9476164 C35.7917558,27.3537292 33.7265366,29.4279772 31.3308732,29.4279772 C28.9352209,29.4279772 26.8699906,27.5196802 26.8699906,24.9476164 C26.9525994,22.5415036 28.9352097,20.4672556 31.3308732,20.4672556 Z" id="形状" fill="#FACD2F" fill-rule="nonzero"></path>
    </g>
</svg>