<?xml version="1.0" encoding="UTF-8"?>
<svg width="64px" height="64px" viewBox="0 0 64 64" version="1.1" xmlns="http://www.w3.org/2000/svg" xmlns:xlink="http://www.w3.org/1999/xlink">
    <title>icon/百公里报警数</title>
    <g id="icon/百公里报警数" stroke="none" stroke-width="1" fill="none" fill-rule="evenodd">
        <rect id="矩形" fill-opacity="0.146771198" fill="#FF9173" fill-rule="nonzero" x="0" y="0" width="64" height="64" rx="32"></rect>
        <path d="M32,20.8 C38.2594002,20.8 43.3333334,25.9388174 43.3333334,32.2782609 L43.3341657,32.6391419 C42.2267372,32.226093 41.0259053,32 39.7714283,32 C39.0688989,32 38.3831936,32.0709073 37.7212953,32.2058481 L33.1310668,32.236713 L32.5139668,26 L26.0500002,35.7065914 L30.8933002,35.6922435 L31.0200893,37.0181165 C30.188923,38.4587769 29.7142856,40.1248258 29.7142856,41.9 C29.7142856,43.8499452 30.2869825,45.6682199 31.2758361,47.2007299 L20.6666666,47.2 C19.4669823,47.2 18.48498,46.2560662 18.4052293,45.0615222 L18.4,44.9043478 L18.4,44.9043478 L18.4,42.608696 C18.4,41.3408432 19.4148221,40.3130438 20.6666666,40.3130438 L20.6666669,32.2782609 C20.6666669,25.9388174 25.7406002,20.8 32,20.8 Z M31.997585,18.4124541 C32.6786114,18.4124541 33.2340584,17.871993 33.2340584,17.2093406 L33.2340584,14.8031135 C33.2340584,14.1404611 32.6786114,13.6 31.997585,13.6 C31.3165586,13.6 30.7611116,14.1404611 30.7611116,14.8031135 L30.7611116,17.2093406 C30.7611116,17.871993 31.3165586,18.4124541 31.997585,18.4124541 L31.997585,18.4124541 Z M41.744473,21.2510501 C42.2226405,21.7163166 43.0099263,21.7163166 43.4929238,21.2510501 L45.2413744,19.5497724 C45.7195418,19.0845058 45.7195418,18.3184609 45.2413744,17.8484946 C44.763207,17.3832281 43.9759211,17.3832281 43.4929238,17.8484946 L41.744473,19.5497724 C41.2614756,20.0150389 41.2614756,20.7810838 41.744473,21.2510501 Z M39.7714283,33.8 C44.3159341,33.8 48,37.4264946 48,41.9 C48,46.290655 44.4511252,49.8653946 40.0229981,49.9962867 L39.7714283,50 C35.2269229,50 31.542857,46.3735054 31.542857,41.9 C31.542857,37.509345 35.0917318,33.9346054 39.5198585,33.8037133 L39.7714283,33.8 Z M38.8571426,37.4 C38.3865024,37.4 38.0015701,37.7649551 37.948981,38.198795 L37.9428569,38.3 L37.9428569,38.3 L37.9428569,42.8 C37.9428569,43.2336134 38.2850339,43.6281513 38.8571426,43.7 L42.5142854,43.7 C43.0211287,43.7 43.4285711,43.276734 43.4285711,42.8 C43.4285711,42.2325008 43.0211287,41.8092393 42.5142854,41.9 L39.7714283,41.9 L39.7714283,38.3 C39.7636192,37.90858 39.480882,37.5399322 38.9947216,37.4249085 L38.8571426,37.4 Z M18.7586256,17.8484946 C19.241623,17.3832281 20.0289088,17.3832281 20.5070762,17.8484946 L20.5070762,17.8484946 L22.255527,19.5497724 C22.7336944,20.0197386 22.7336944,20.7857835 22.255527,21.2510501 C21.7725295,21.7163166 20.9852437,21.7163166 20.5070762,21.2510501 L20.5070762,21.2510501 L18.7586256,19.5497724 C18.2804582,19.0798062 18.2804582,18.3137612 18.7586256,17.8484946 Z" id="形状" fill="#FF9173" fill-rule="nonzero"></path>
    </g>
</svg>