<?xml version="1.0" encoding="UTF-8"?>
<svg width="40px" height="40px" viewBox="0 0 40 40" version="1.1" xmlns="http://www.w3.org/2000/svg" xmlns:xlink="http://www.w3.org/1999/xlink">
    <title>编组</title>
    <g id="页面-1" stroke="none" stroke-width="1" fill="none" fill-rule="evenodd">
        <g id="视频功能1备份" transform="translate(-323.000000, -384.000000)">
            <g id="编组" transform="translate(323.000000, 384.000000)">
                <rect id="矩形" fill="#55E093" x="0" y="0" width="40" height="40" rx="20"></rect>
                <path d="M14.264565,11.8086684 C13.3348227,12.459054 12.5281334,13.2598298 11.8659905,14.1875508 C10.5358334,16.0488657 9.87955229,18.3261955 10.0182235,20.5976561 C10.047522,21.0878876 10.4694228,21.4609319 10.9596853,21.4316351 C11.4499497,21.4023384 11.823019,20.980466 11.7937202,20.4902364 C11.5573786,16.6015912 14.1219776,13.0547423 17.8936886,12.0547442 C20.7844827,11.2891245 23.8256773,12.1504465 25.8804989,14.2558924 L24.4936975,15.0019809 L28.8045062,17.666019 L28.9588123,12.6015947 L27.4997405,13.3867456 C26.359047,12.0937871 24.9058408,11.1191912 23.2651087,10.5488797 C21.3841363,9.89849423 19.3703428,9.82427561 17.4385956,10.3359915 C16.2939955,10.6387233 15.2255801,11.1348142 14.2645799,11.8086372 L14.264565,11.8086684 Z M11.039744,27.3984053 L12.4988365,26.6152075 C13.6395301,27.9081661 15.0927363,28.8827619 16.7334684,29.4511203 C18.6144407,30.1015058 20.6282343,30.1757244 22.5599814,29.6640085 C23.3119797,29.4647921 24.0307727,29.1835426 24.7085396,28.8222171 C25.0620764,28.6347184 25.4038936,28.4237823 25.7339913,28.1933159 C26.6637336,27.5429304 27.4684698,26.7441077 28.1306126,25.8183398 C29.4607697,23.958978 30.1190041,21.6836014 29.9822862,19.4140939 C29.9529876,18.9238623 29.5310868,18.5508181 29.0408243,18.5801149 C28.5505599,18.6094116 28.1774906,19.031284 28.2067894,19.5215136 C28.4372713,23.4023463 25.870719,26.9452889 22.1048677,27.9452871 C19.2140736,28.7109068 16.172879,27.8495847 14.1180574,25.7441388 L15.5048589,24.9980503 L11.1940502,22.3340123 L11.039744,27.3984365 L11.039744,27.3984053 Z" id="形状" fill="#FFFFFF" fill-rule="nonzero"></path>
            </g>
        </g>
    </g>
</svg>