<?xml version="1.0" standalone="no"?><!DOCTYPE svg PUBLIC "-//W3C//DTD SVG 1.1//EN" "http://www.w3.org/Graphics/SVG/1.1/DTD/svg11.dtd"><svg t="1641305112807" class="icon" viewBox="0 0 1088 1024" version="1.1" xmlns="http://www.w3.org/2000/svg" p-id="9719" xmlns:xlink="http://www.w3.org/1999/xlink" width="212.5" height="200"><defs><style type="text/css"></style></defs><path d="M844.8 1024c-7.168 0-15.36-2.048-21.504-7.168l-286.72-207.872-286.72 207.872c-13.312 9.216-30.72 9.216-44.032 0s-18.432-26.624-13.312-41.984L302.08 637.952 15.36 430.08c-13.312-9.216-18.432-26.624-13.312-41.984s19.456-25.6 35.84-25.6h353.28L500.736 25.6c5.12-15.36 19.456-25.6 35.84-25.6s30.72 10.24 35.84 25.6l108.544 336.896h354.304c16.384 0 30.72 10.24 35.84 25.6s0 32.768-13.312 41.984l-286.72 207.872 109.568 336.896c5.12 15.36-1.024 32.768-13.312 41.984-7.168 5.12-14.336 7.168-22.528 7.168z m-308.224-299.008c7.168 0 15.36 3.072 21.504 7.168l216.064 156.672-82.944-252.928c-4.096-15.36 1.024-32.768 14.336-41.984l215.04-156.672h-266.24c-16.384 0-30.72-10.24-35.84-25.6l-81.92-253.952-81.92 253.952c-5.12 15.36-19.456 25.6-35.84 25.6h-266.24l215.04 156.672c13.312 9.216 18.432 26.624 13.312 41.984l-81.92 252.928 215.04-156.672c7.168-4.096 14.336-7.168 22.528-7.168z" p-id="9720" fill="#d81e06"></path></svg>