<?xml version="1.0" encoding="UTF-8"?>
<svg width="64px" height="64px" viewBox="0 0 64 64" version="1.1" xmlns="http://www.w3.org/2000/svg" xmlns:xlink="http://www.w3.org/1999/xlink">
    <title>icon/车辆数</title>
    <g id="icon/车辆数" stroke="none" stroke-width="1" fill="none" fill-rule="evenodd">
        <path d="M32,0 C14.326875,0 0,14.326875 0,32 C0,49.6731875 14.326875,64 32,64 C49.673125,64 64,49.6731875 64,32 C64,14.326875 49.673125,0 32,0 Z" id="路径" fill-opacity="0.101098121" fill="#3479FF" fill-rule="nonzero"></path>
        <path d="M42.8331122,13 C43.5496335,13 44.2179529,13.1351068 44.8378177,13.4050728 C45.4579352,13.6752864 46.0021174,14.0398643 46.4704905,14.4989922 C46.9389269,14.9581201 47.3109595,15.4914267 47.5865883,16.0992216 C47.8620276,16.7068308 48,17.3618698 48,18.0639051 L48,42.8166878 C48,43.4379191 47.9309506,43.9780987 47.7933573,44.4371646 C47.6555113,44.8962306 47.4074264,45.2608704 47.0492921,45.5310841 C46.6911579,45.80105 46.1537353,45.9361568 45.4372141,45.9361568 L45.4372141,48.447769 C45.4372141,49.1500521 45.1823695,49.7510359 44.6725541,50.2505349 C44.1629282,50.7502196 43.5497598,51 42.8332386,51 C42.11697,51 41.5106876,50.7502196 41.0147705,50.2505349 C40.5186007,49.7510359 40.2707685,49.1500521 40.2707685,48.447769 L40.2707685,45.9361568 L24.729421,45.9361568 L24.729421,48.447769 C24.729421,49.1500521 24.4813361,49.7510359 23.9853558,50.2505349 C23.4893755,50.7502196 22.8831563,51 22.1666351,51 C21.4503665,51 20.837135,50.7502196 20.3272564,50.2505349 C19.8176305,49.7510359 19.5627859,49.1500521 19.5627859,48.447769 L19.5627859,45.9361568 C18.873935,45.9361568 18.3503476,45.80105 17.9920238,45.5310841 C17.6338895,45.2608704 17.3857414,44.8962306 17.2481481,44.4371646 C17.1103021,43.9780987 17.0345563,43.4445444 17.0206579,42.8369352 C17.0069492,42.229326 17,41.5742871 17,40.872066 L17,18.0639051 C17,17.3618698 17.137846,16.7068308 17.4132853,16.0992216 C17.6889773,15.4914267 18.0609468,14.9580582 18.5293831,14.4989922 C18.9978195,14.0399262 19.5419385,13.6752864 20.162056,13.4050728 C20.781984,13.1351068 21.4503033,13 22.1665719,13 L42.8331122,13 Z M23.3653647,37.5500605 C22.8142965,37.5500605 22.3595689,37.7324114 22.0014347,38.0971131 C21.6431109,38.461691 21.463949,38.9006334 21.463949,39.4136925 C21.463949,39.9268755 21.6430477,40.365756 22.0014347,40.7304577 C22.3595058,41.0950975 22.8142965,41.2773245 23.3653647,41.2773245 C23.8889521,41.2773245 24.3366673,41.0950975 24.7087631,40.7304577 C25.0807957,40.365756 25.2667804,39.9268755 25.2667804,39.4136925 C25.2667804,38.9006334 25.0807957,38.461691 24.7087631,38.0971131 C24.3367305,37.7324114 23.8889521,37.5500605 23.3653647,37.5500605 Z M41.4693086,37.6311122 C40.9457843,37.6311122 40.5118411,37.806652 40.1674156,38.1579174 C39.8229269,38.508935 39.6505878,38.92763 39.6505878,39.4136306 C39.6505878,39.899817 39.8229269,40.31845 40.1674156,40.6695296 C40.5118411,41.020733 40.9457843,41.1962109 41.4693086,41.1962109 C41.9652889,41.1962109 42.3854602,41.020733 42.7299488,40.6695296 C43.0743743,40.31845 43.2467134,39.8997551 43.2467134,39.4136306 C43.2467134,38.927568 43.0743743,38.508935 42.7299488,38.1579174 C42.3854602,37.806652 41.9652257,37.6311122 41.4693086,37.6311122 Z M45.4372141,20.575765 L19.5627859,20.575765 L19.5627859,30.703699 L45.4372141,30.703699 L45.4372141,20.575765 Z M37.7493616,15.5118599 L27.2507015,15.5118599 L27.1005778,15.5192977 C26.8070578,15.5490491 26.5539177,15.6680545 26.3414359,15.8763139 C26.093351,16.119531 25.9694033,16.4164935 25.9694033,16.767697 C25.9694033,17.1457112 26.093351,17.4562959 26.3414359,17.699451 C26.5893313,17.9424204 26.8925673,18.0639051 27.2507015,18.0639051 L27.2507015,18.0639051 L37.7493616,18.0639051 L37.8995087,18.0564673 C38.1930685,18.0267159 38.4462087,17.9077105 38.6586904,17.699451 C38.9067753,17.4562959 39.030723,17.1457112 39.030723,16.767697 C39.030723,16.4164316 38.9067753,16.1194691 38.6586904,15.8763139 C38.410795,15.6333446 38.1075591,15.5118599 37.7493616,15.5118599 L37.7493616,15.5118599 Z" id="路径-10" fill="#3479FF" fill-rule="nonzero"></path>
    </g>
</svg>