<?xml version="1.0" standalone="no"?><!DOCTYPE svg PUBLIC "-//W3C//DTD SVG 1.1//EN" "http://www.w3.org/Graphics/SVG/1.1/DTD/svg11.dtd"><svg t="1641458967876" class="icon" viewBox="0 0 1204 1024" version="1.1" xmlns="http://www.w3.org/2000/svg" p-id="7165" xmlns:xlink="http://www.w3.org/1999/xlink" width="235.15625" height="200"><defs><style type="text/css"></style></defs><path d="M1033.035 1018.217H171.671c-133.18 0-187.513-92.1-120.591-204.74L481.762 89.932c66.921-112.64 176.248-112.64 243.17 0l428.694 723.547c66.922 112.64 12.59 204.74-120.59 204.74zM602.353 205.222a65.054 65.054 0 0 0-64.934 64.933l32.467 422.732h64.934l32.467-422.732a65.054 65.054 0 0 0-64.934-64.933z m0 552.598a65.054 65.054 0 0 0-64.934 64.934 65.054 65.054 0 0 0 64.934 64.934 65.054 65.054 0 0 0 64.934-64.934 65.476 65.476 0 0 0-64.934-64.934z" p-id="7166" fill="#d81e06"></path></svg>