<?xml version="1.0" encoding="UTF-8"?>
<svg width="20px" height="20px" viewBox="0 0 20 20" version="1.1" xmlns="http://www.w3.org/2000/svg" xmlns:xlink="http://www.w3.org/1999/xlink">
    <title>icon/课程</title>
    <g id="页面-1" stroke="none" stroke-width="1" fill="none" fill-rule="evenodd">
        <g id="培训考试" transform="translate(-24.000000, -161.000000)">
            <g id="编组-4" transform="translate(12.000000, 144.000000)">
                <g id="icon/课程" transform="translate(12.000000, 17.000000)">
                    <rect id="矩形" x="0" y="0" width="20" height="20"></rect>
                    <path d="M2.47731755,1.22187781 L16,1.22187781 L16,0.00199980002 L3.07100592,0 C1.37475345,0 0,1.39586041 0,3.11768823 L0,16.8823118 C0,18.6041396 1.37475345,20 3.07100592,20 L12.9289941,20 C14.6252465,20 16,18.6041396 16,16.8823118 L16,3.76362364 L9.56410256,3.76362364 L9.56410256,12.4447555 L6.96844181,9.9470053 L4.31755424,12.4447555 L4.31755424,3.76362364 L2.47731755,3.76362364 C1.78500986,3.76362364 1.22485207,3.19368063 1.22485207,2.49175082 C1.22485207,1.78982102 1.78698225,1.22187781 2.47731755,1.22187781 Z" id="路径" fill="#3E64FF" fill-rule="nonzero"></path>
                </g>
            </g>
        </g>
    </g>
</svg>