<?xml version="1.0" encoding="UTF-8"?>
<svg width="16px" height="16px" viewBox="0 0 16 16" version="1.1" xmlns="http://www.w3.org/2000/svg" xmlns:xlink="http://www.w3.org/1999/xlink">
    <title>r</title>
    <g id="页面-1" stroke="none" stroke-width="1" fill="none" fill-rule="evenodd">
        <g id="课程" transform="translate(-335.000000, -178.000000)">
            <g id="编组-4" transform="translate(12.000000, 144.000000)">
                <g id="r" transform="translate(323.000000, 34.000000)">
                    <rect id="bg" x="0" y="0" width="16" height="16"></rect>
                    <g transform="translate(4.296876, 1.328125)" fill="#CCCCCC" fill-rule="nonzero" id="路径">
                        <path d="M7.22907532,1.00814319 L1.30995905,6.327165 C1.11956821,6.49825895 1.10392756,6.79127492 1.27500589,6.98166577 L1.27500586,6.98166574 C1.28602756,6.99392466 1.29769511,7.00558702 1.30995903,7.01660328 L7.22907529,12.3356407 C7.46657557,12.5490472 7.48607559,12.9145789 7.27266909,13.1520635 C7.05926259,13.3895638 6.69373092,13.4090638 6.45623064,13.1956573 L0.537114379,7.87663553 L0.537114241,7.87663541 C0.494257004,7.83812349 0.453485394,7.79735188 0.414973474,7.75449464 C-0.182933472,7.08913449 -0.128245908,6.06505517 0.537114241,5.46714823 L6.4562305,0.148126413 C6.69373078,-0.06529571 7.05926246,-0.0457800623 7.27266895,0.191720214 C7.48607545,0.429204865 7.46657543,0.794736541 7.22907515,1.00814304 L7.22907532,1.00814319 Z" transform="translate(3.710395, 6.671889) scale(-1, 1) translate(-3.710395, -6.671889) "></path>
                    </g>
                </g>
            </g>
        </g>
    </g>
</svg>